Land_normalized_Motion_pl04
version=1
nRows=20
nColumns=43
inDegrees=yes
endheader
time		pelvis_tilt		pelvis_list		pelvis_rotation		pelvis_tx		pelvis_ty		pelvis_tz		hip_flexion_r		hip_adduction_r		hip_rotation_r		knee_angle_r		ankle_angle_r		subtalar_angle_r		mtp_angle_r		hip_flexion_l		hip_adduction_l		hip_rotation_l		knee_angle_l		ankle_angle_l		subtalar_angle_l		mtp_angle_l		lumbar_extension		lumbar_bending		lumbar_rotation		neck_flexion		neck_lateral_bending		neck_rotation		arm_flex_r		arm_add_r		arm_rot_r		elbow_flex_r		pro_sup_r		wrist_flex_r		wrist_dev_r		hand_finger_flex_r		arm_flex_l		arm_add_l		arm_rot_l		elbow_flex_l		pro_sup_l		wrist_flex_l		wrist_dev_l		hand_finger_flex_l		
0.729167		2.594298		8.468754		88.536881		0.001762		0.659354		0.545696		67.065700		1.885181		-1.208735		-104.086966		9.177449		-7.973225		14.095679		64.845219		-6.651068		2.607110		-101.984565		15.565032		6.662381		19.564848		-52.473921		0.700901		3.417506		16.331450		-1.271442		-2.424882		-10.352203		-32.631286		-21.920651		110.324088		117.317856		-14.011478		-25.000000		-7.468568		-6.763841		-20.305623		-20.886378		74.347130		116.395835		-41.808283		-13.600878		3.401572		
0.732096		2.623385		8.700257		88.849185		0.001227		0.651103		0.543358		67.914310		1.746855		-1.023474		-105.747151		9.249851		-7.533967		14.373445		65.857887		-6.347734		3.059254		-103.746530		15.510006		7.166060		19.768084		-53.225613		0.891625		3.424012		16.839748		-1.202238		-2.595953		-8.853697		-32.838007		-21.730550		110.626444		117.173440		-14.070262		-25.000000		-7.504230		-5.238423		-20.639159		-20.418333		74.770946		116.475124		-41.808457		-13.722385		3.429466		
0.735025		2.573210		8.821053		89.194278		0.000506		0.642655		0.540906		68.835416		1.469132		-0.731503		-107.417484		9.724898		-6.252686		15.205911		66.972459		-6.015708		3.457890		-105.457692		15.384644		8.237977		20.371617		-53.809287		1.061747		3.343035		17.174232		-1.230487		-2.843739		-7.361233		-33.059054		-21.429090		110.851951		116.677624		-14.325353		-25.000000		-7.594680		-3.801952		-20.964066		-19.860530		75.250085		116.469849		-42.288143		-13.787318		3.385451		
0.737955		2.514000		9.110952		89.618740		-0.000407		0.634653		0.538361		69.442703		1.149357		-0.460315		-108.986747		10.071545		-5.720655		15.697297		67.825084		-5.495552		3.840410		-107.087892		15.441523		8.521270		20.777863		-54.539762		1.286116		3.263666		17.522128		-1.071614		-2.961080		-5.868238		-33.375519		-21.195418		111.041509		116.452454		-14.430448		-25.000000		-7.607569		-2.221476		-21.286761		-19.293132		75.593611		116.532212		-42.330014		-13.859229		3.444201		
0.740884		2.434358		9.323769		89.999216		-0.001238		0.626611		0.535827		70.105958		0.802667		-0.109044		-110.549269		10.761563		-4.279329		16.912424		68.753043		-5.049335		4.209077		-108.679166		15.337589		9.246095		21.809098		-55.159319		1.468227		3.137762		17.773211		-0.985898		-3.147381		-4.314628		-33.706408		-20.760281		111.140839		115.886543		-14.762545		-25.000000		-7.610412		-0.742632		-21.639163		-18.651259		75.993510		116.499553		-42.812589		-13.874716		3.546949		
0.743813		2.386244		9.550695		90.350847		-0.001897		0.618801		0.533351		70.693053		0.517353		0.164858		-112.034103		11.310905		-3.429172		17.692075		69.641416		-4.641057		4.582676		-110.213585		15.212349		9.808776		22.593192		-55.802664		1.644316		3.062372		18.033904		-0.899254		-3.338895		-2.745865		-33.965966		-20.400616		111.265703		115.599472		-14.972811		-25.000000		-7.566380		0.734553		-21.971406		-18.112398		76.432102		116.550860		-42.975032		-13.948604		3.728015		
0.746742		2.386964		9.808424		90.614033		-0.002331		0.611299		0.530971		71.195265		0.339320		0.399165		-113.435852		11.847348		-2.669479		18.382477		70.463627		-4.358734		4.948471		-111.694272		15.088499		10.314017		23.304343		-56.483878		1.776065		3.083491		18.315086		-0.781146		-3.519637		-1.151311		-34.243803		-20.032919		111.355575		115.357421		-15.145851		-25.000000		-7.521326		2.244142		-22.293297		-17.559956		76.878726		116.620573		-43.094285		-14.036317		3.901022		
0.749672		2.430608		10.158124		90.849149		-0.002523		0.604097		0.528637		71.542257		0.173934		0.591049		-114.781761		12.374435		-1.621063		20.748417		71.197695		-4.175209		5.367743		-113.117051		14.520175		10.837014		26.739851		-57.262470		1.907435		3.021558		18.566120		-0.576504		-3.482514		0.630035		-34.535694		-19.249629		111.363645		114.777710		-16.003963		-25.000000		-6.989204		3.654785		-22.729324		-16.968282		77.372741		116.636381		-44.021817		-13.982814		4.922074		
0.752601		2.482802		10.448965		90.950625		-0.002604		0.597325		0.526496		71.913238		0.165271		0.741626		-115.992521		12.774130		-1.328274		21.190895		71.916073		-4.155996		5.627860		-114.472503		14.369117		11.176275		27.342619		-57.997683		1.930850		3.218117		18.902039		-0.459238		-3.736391		2.284011		-34.867155		-18.927345		111.342146		114.737540		-16.037197		-25.000000		-6.861626		5.283624		-22.982603		-16.406682		77.802342		116.770696		-43.961511		-14.104162		5.146398		
0.755530		2.562141		10.811491		91.068223		-0.002534		0.590774		0.524336		72.159230		0.130289		0.823696		-117.194652		13.428176		-0.741895		21.370149		72.563798		-4.180520		5.971270		-115.823706		14.182613		11.835730		27.538951		-58.784750		1.985385		3.391948		19.132878		-0.361418		-4.074054		3.960944		-35.114628		-18.550513		111.341846		114.727259		-16.017913		-25.000000		-6.850685		6.883323		-23.304101		-15.827808		78.203053		116.937831		-43.882357		-14.234718		5.191302		
0.758460		2.604399		11.192932		91.184336		-0.002507		0.584304		0.522117		72.363616		0.045307		0.965705		-118.404103		14.291407		0.262361		21.620892		73.179063		-4.223679		6.293514		-117.161975		14.028826		12.816343		27.896154		-59.558048		2.017969		3.500400		19.213677		-0.291277		-4.379923		5.642068		-35.376384		-18.071153		111.313005		114.660992		-16.107915		-25.000000		-6.875576		8.407518		-23.610509		-15.260139		78.647289		117.098785		-44.009542		-14.317825		5.194976		
0.761389		2.591685		11.483900		91.291257		-0.002542		0.577881		0.519944		72.678872		-0.050578		1.146097		-119.579953		14.945030		0.985775		21.805858		73.838838		-4.217630		6.526288		-118.431395		13.924545		13.464977		28.240960		-60.234755		2.001731		3.575600		19.388532		-0.142282		-4.555225		7.325783		-35.631081		-17.577706		111.235025		114.614427		-16.208183		-25.000000		-6.920402		9.968969		-23.912573		-14.656260		79.048073		117.263432		-44.053806		-14.339279		5.203029		
0.764318		2.559505		11.722582		91.382485		-0.002641		0.571376		0.517687		73.061226		-0.149868		1.309879		-120.752151		15.511130		1.550482		21.959536		74.534224		-4.203085		6.706388		-119.691892		13.851913		13.997793		28.548996		-60.836611		1.965895		3.646758		19.589164		0.014028		-4.705584		8.948651		-35.893590		-17.104986		111.173684		114.592947		-16.275709		-25.000000		-6.954923		11.507412		-24.167115		-14.068320		79.441009		117.426615		-44.035669		-14.359755		5.222169		
0.767247		2.512447		11.846773		91.437781		-0.002753		0.564726		0.515391		73.585458		-0.246951		1.458957		-121.913834		15.991982		1.853934		22.065936		75.337542		-4.195498		6.857416		-120.929691		13.790088		14.382806		28.759233		-61.297422		1.896857		3.730767		19.801897		0.194284		-4.862606		10.518012		-36.156721		-16.651067		111.113672		114.613265		-16.267738		-25.000000		-6.970995		13.020094		-24.445118		-13.439389		79.796246		117.604659		-43.859459		-14.399573		5.273881		
0.770177		2.455680		11.886240		91.460077		-0.002865		0.557717		0.512925		74.225584		-0.346925		1.673316		-123.124245		16.747988		2.886425		22.248545		76.260472		-4.189174		7.109576		-122.189268		13.678843		15.525020		29.582674		-61.565258		1.812627		3.639588		19.641765		0.307546		-4.957070		12.267227		-36.374627		-15.758413		110.830621		114.596692		-16.626451		-25.000000		-7.101470		14.283181		-24.704282		-13.010489		80.230120		117.845762		-44.030704		-14.136867		5.297360		
0.773106		2.356493		11.845495		91.397383		-0.002896		0.550703		0.510456		74.992460		-0.382175		1.803344		-124.294472		17.142315		2.882229		22.310211		77.176665		-4.217523		7.182880		-123.402232		13.714419		15.730509		29.776583		-61.799082		1.604879		3.728292		19.852055		0.491974		-5.072916		13.670542		-36.632210		-15.357311		110.783917		114.645244		-16.561599		-25.000000		-7.083618		15.663743		-25.004071		-12.383558		80.611002		118.051825		-43.745263		-14.223948		5.392846		
0.776035		2.188126		11.648253		91.336917		-0.002929		0.543477		0.507946		75.953551		-0.453001		2.003658		-125.478905		17.611378		3.009834		22.367627		78.246680		-4.226947		7.227463		-124.582669		13.723064		16.235814		30.075411		-61.806749		1.357975		3.703648		19.818674		0.652807		-5.252045		15.082951		-36.795442		-14.821153		110.635559		114.673078		-16.560845		-25.000000		-7.098528		16.961729		-25.268436		-11.843740		80.954435		118.241503		-43.516472		-14.220120		5.490491		
0.778965		1.919981		11.438366		91.296544		-0.003003		0.536293		0.505390		76.952564		-0.571381		2.301531		-126.676836		18.064668		3.225124		22.397999		79.266647		-4.203272		7.173808		-125.714462		13.788598		16.895455		30.521797		-61.780552		1.053086		3.538380		19.727523		0.804657		-5.401029		16.496875		-36.903367		-14.188614		110.449107		114.682963		-16.641998		-25.000000		-7.142621		18.161237		-25.548185		-11.372626		81.339358		118.451523		-43.360494		-14.177719		5.599439		
0.781894		1.572019		11.376399		91.263578		-0.003185		0.529623		0.502907		77.769857		-0.735715		2.669662		-127.818375		18.411026		3.286502		22.416992		80.011563		-4.150013		6.991769		-126.753586		13.920878		17.256115		30.810518		-61.960153		0.696959		3.383510		19.919002		0.981245		-5.500663		17.848598		-37.113973		-13.696971		110.333222		114.710382		-16.619687		-25.000000		-7.147450		19.475717		-25.748813		-10.856007		81.685010		118.625877		-43.162583		-14.206383		5.694118		
0.784823		1.036583		11.269790		91.324545		-0.003468		0.523185		0.500463		78.651731		-1.024891		3.247782		-128.983254		18.801869		3.508130		22.417078		80.711820		-3.992752		6.596021		-127.719681		14.135042		17.679310		31.195340		-62.076174		0.276658		2.977038		19.911035		1.168012		-5.683468		19.174813		-37.145889		-13.159339		110.155191		114.669594		-16.663234		-25.000000		-7.180317		20.693402		-26.041962		-10.357750		82.089778		118.777860		-43.068236		-14.198415		5.794186		
